<?xml version="1.0" encoding="UTF-8"?>
<svg width="32px" height="32px" viewBox="0 0 32 32" version="1.1" xmlns="http://www.w3.org/2000/svg">
    <title>HTTP Status Dogs</title>
    <g stroke="none" stroke-width="1" fill="none" fill-rule="evenodd">
        <circle fill="#4A5568" cx="16" cy="16" r="16"/>
        <path d="M24,12 C24,10.8954305 23.1045695,10 22,10 C20.8954305,10 20,10.8954305 20,12 M12,12 C12,10.8954305 11.1045695,10 10,10 C8.8954305,10 8,10.8954305 8,12 M8,14 C8,18.418278 11.581722,22 16,22 C20.418278,22 24,18.418278 24,14 M14,16 C14,15.4477153 13.5522847,15 13,15 C12.4477153,15 12,15.4477153 12,16 M20,16 C20,15.4477153 19.5522847,15 19,15 C18.4477153,15 18,15.4477153 18,16 M13,19 L19,19 C19,19 19,20 16,20 C13,20 13,19 13,19 Z" stroke="#FFFFFF" stroke-width="1.5" stroke-linecap="round" stroke-linejoin="round"/>
    </g>
</svg>
